<svg width="28" height="28" viewBox="0 0 28 28" fill="none" xmlns="http://www.w3.org/2000/svg">
<g clip-path="url(#clip0_1227_736)">
<path d="M22.6348 4.80322H5.34668V20.516H22.6348V4.80322Z" fill="white"/>
<path fill-rule="evenodd" clip-rule="evenodd" d="M27.9911 14.0001C27.9911 21.7218 21.7274 27.9814 14.0005 27.9814C6.27361 27.9814 0.00976562 21.7218 0.00976562 14.0001C0.00976562 6.27835 6.27361 0.0186768 14.0005 0.0186768C21.7274 0.0186768 27.9911 6.27835 27.9911 14.0001ZM10.0359 19.5639H7.32069C6.75015 19.5639 6.46832 19.5639 6.29648 19.4541C6.11088 19.3338 5.99746 19.1346 5.98371 18.9148C5.97339 18.7122 6.11432 18.4648 6.39615 17.9702L13.1003 6.16108C13.3856 5.65962 13.5299 5.40888 13.7121 5.31615C13.908 5.21655 14.1417 5.21655 14.3376 5.31615C14.5198 5.40888 14.6641 5.65962 14.9494 6.16108L16.3276 8.56536L16.3347 8.57763C16.6428 9.1156 16.799 9.38842 16.8672 9.67475C16.9428 9.98731 16.9428 10.317 16.8672 10.6296C16.7985 10.9181 16.6438 11.1929 16.3311 11.739L12.8095 17.9599L12.8004 17.9759C12.4903 18.5183 12.3331 18.7932 12.1153 19.0006C11.8781 19.2273 11.5928 19.3921 11.2801 19.485C10.9948 19.5639 10.6752 19.5639 10.0359 19.5639ZM16.8927 19.5639H20.7832C21.3572 19.5639 21.646 19.5639 21.8179 19.4508C22.0035 19.3305 22.1203 19.1277 22.1307 18.9081C22.1406 18.712 22.0027 18.4743 21.7326 18.0084C21.7233 17.9926 21.714 17.9764 21.7045 17.96L19.7556 14.6284L19.7335 14.5909C19.4596 14.1281 19.3214 13.8944 19.1438 13.8041C18.948 13.7044 18.7176 13.7044 18.5218 13.8041C18.3431 13.8968 18.1987 14.1407 17.9134 14.6318L15.9716 17.9635L15.9649 17.9749C15.6806 18.4653 15.5386 18.7104 15.5488 18.9114C15.5626 19.1313 15.676 19.3338 15.8616 19.4541C16.03 19.5639 16.3187 19.5639 16.8927 19.5639Z" fill="#E84142"/>
</g>
<defs>
<clipPath id="clip0_1227_736">
<rect width="28" height="28" fill="white"/>
</clipPath>
</defs>
</svg>
