<svg width="29" height="28" viewBox="0 0 29 28" fill="none" xmlns="http://www.w3.org/2000/svg">
<path d="M27.6551 17.3867C25.7853 24.8867 18.189 29.4511 10.688 27.5809C3.1902 25.7111 -1.37419 18.1142 0.496428 10.6148C2.36541 3.11387 9.96177 -1.45087 17.4604 0.418928C24.9608 2.28873 29.5249 9.88639 27.6549 17.3868L27.6551 17.3867H27.6551Z" fill="#F3BA2F"/>
<path fill-rule="evenodd" clip-rule="evenodd" d="M14.0774 8.88529L10.4522 12.5105L10.4523 12.5104L8.34303 10.401L14.0774 4.66663L19.8137 10.4027L17.7044 12.5121L14.0774 8.88529ZM6.85355 11.8903L4.74414 14L6.8534 16.1089L8.96281 13.9995L6.85355 11.8903ZM10.4522 15.4896L14.0775 19.1146L17.7043 15.4879L19.8148 17.5961L19.8137 17.5972L14.0775 23.3333L8.34306 17.5989L8.34007 17.5959L10.4522 15.4896ZM21.3015 11.8914L19.1921 14.0008L21.3015 16.1101L23.4108 14.0007L21.3015 11.8914Z" fill="white"/>
<path d="M16.2164 13.9989H16.2173L14.0771 11.8585L12.4951 13.44V13.44L12.3134 13.6218L11.9385 13.9967L11.9355 13.9997L11.9385 14.0027L14.0771 16.1416L16.2175 14.0012L16.2185 14L16.2166 13.9989" fill="white"/>
</svg>
